<svg xmlns="http://www.w3.org/2000/svg" xmlns:xlink="http://www.w3.org/1999/xlink" width="2000" zoomAndPan="magnify" viewBox="0 0 1500 1499.999933" height="2000" preserveAspectRatio="xMidYMid meet" version="1.0"><defs><clipPath id="1ee923643d"><path d="M 750 0 C 335.785156 0 0 335.785156 0 750 C 0 1164.214844 335.785156 1500 750 1500 C 1164.214844 1500 1500 1164.214844 1500 750 C 1500 335.785156 1164.214844 0 750 0 Z M 750 0 " clip-rule="nonzero"/></clipPath><clipPath id="eefa4a82b9"><path d="M 0 0 L 1500 0 L 1500 1500 L 0 1500 Z M 0 0 " clip-rule="nonzero"/></clipPath><clipPath id="d9d02ff63a"><path d="M 750 0 C 335.785156 0 0 335.785156 0 750 C 0 1164.214844 335.785156 1500 750 1500 C 1164.214844 1500 1500 1164.214844 1500 750 C 1500 335.785156 1164.214844 0 750 0 Z M 750 0 " clip-rule="nonzero"/></clipPath><clipPath id="38d83d77c3"><rect x="0" width="1500" y="0" height="1500"/></clipPath><clipPath id="fdbe6fcda1"><path d="M 546 213.734375 L 991 213.734375 L 991 588 L 546 588 Z M 546 213.734375 " clip-rule="nonzero"/></clipPath><clipPath id="881f3c108e"><path d="M 705 213.734375 L 779 213.734375 L 779 419 L 705 419 Z M 705 213.734375 " clip-rule="nonzero"/></clipPath></defs><g clip-path="url(#1ee923643d)"><g transform="matrix(1, 0, 0, 1, 0, 0.000000000000112861)"><g clip-path="url(#38d83d77c3)"><g clip-path="url(#eefa4a82b9)"><g clip-path="url(#d9d02ff63a)"><rect x="-330" width="2160" fill="#ffffff" height="2159.999904" y="-329.999985" fill-opacity="1"/></g></g></g></g></g><path fill="#c91e17" d="M 1270.21875 606.777344 C 1246.304688 556.671875 1215.710938 519.054688 1161.460938 483.425781 C 1094.617188 441.070312 1022.519531 421.953125 943.335938 434.492188 C 943.285156 440.710938 947.820312 443.109375 952.410156 445.757812 C 1093.597656 528.332031 1148.5625 659.230469 1150.753906 814.640625 C 1151.875 895.382812 1134.949219 975.203125 1096.554688 1043.351562 C 1112.003906 977.804688 1120.671875 907.257812 1115.367188 834.828125 C 1109.402344 753.324219 1084.722656 678.546875 1044.238281 607.898438 C 1024.40625 573.238281 992.945312 548.671875 971.121094 516.101562 C 938.644531 508.65625 905.449219 518.085938 872.511719 511.308594 C 853.75 507.433594 830.496094 496.527344 810.203125 502.746094 C 797.101562 513.804688 799.242188 532.664062 789.65625 545.816406 C 788.890625 550.914062 789.65625 555.550781 793.53125 559.324219 C 800.3125 560.75 806.839844 558.660156 810.613281 553.871094 C 831.160156 527.925781 856.246094 535.164062 881.691406 543.164062 C 902.695312 549.792969 916.105469 565.492188 929.464844 581.699219 C 991.671875 657.394531 1023.792969 746.035156 1032.664062 841.808594 C 1046.382812 989.628906 966.789062 1144.941406 801.636719 1180.519531 C 791.03125 1182.8125 766.8125 1188.777344 739.433594 1186.226562 C 663.917969 1179.242188 604.519531 1148.152344 561.945312 1084.84375 C 512.484375 1011.292969 494.078125 930.296875 495.351562 842.21875 C 497.085938 720.804688 552.308594 627.066406 639.242188 548.773438 C 661.929688 528.332031 690.027344 520.277344 719.800781 538.121094 C 725.71875 541.6875 731.683594 541.992188 734.742188 533.941406 C 736.222656 514.722656 732.191406 494.335938 710.113281 495.457031 C 672.742188 497.34375 634.347656 498.054688 599.011719 514.265625 C 603.089844 517.171875 607.171875 520.074219 611.199219 522.929688 C 526.199219 560.800781 436.15625 693.6875 429.425781 821.777344 C 422.59375 951.808594 462.363281 1064.300781 542.566406 1166.144531 C 524.621094 1172.71875 511.769531 1171.191406 498.71875 1167.214844 C 411.886719 1140.863281 339.585938 1094.019531 282.578125 1022.097656 C 266.058594 1001.25 256.472656 970.414062 223.945312 964.957031 C 272.996094 1122.207031 437.277344 1262.480469 611.25 1251.675781 C 627.921875 1250.65625 643.984375 1251.0625 659.839844 1258.503906 C 703.078125 1278.894531 753.402344 1286.234375 800.925781 1283.480469 C 815.152344 1282.667969 829.425781 1280.066406 842.632812 1274.511719 C 855.429688 1269.160156 865.578125 1262.429688 879.597656 1259.371094 C 908.203125 1253.203125 937.777344 1255.550781 966.738281 1256.160156 C 1007.171875 1256.976562 1051.835938 1237.964844 1086.765625 1218.542969 C 1136.988281 1190.660156 1180.480469 1154.269531 1215.355469 1108.699219 C 1245.898438 1068.890625 1270.066406 1024.289062 1286.992188 977.089844 C 1320.800781 882.945312 1325.386719 778.859375 1298.464844 682.421875 C 1291.378906 656.578125 1281.84375 631.195312 1270.21875 606.777344 Z M 1270.21875 606.777344 " fill-opacity="1" fill-rule="nonzero"/><g clip-path="url(#fdbe6fcda1)"><path fill="#40722a" d="M 773.339844 213.734375 C 755.75 254.207031 730.511719 352.632812 725.667969 365.070312 C 721.027344 377.046875 712.714844 390.757812 699.050781 386.632812 C 657.851562 374.144531 616.910156 394.582031 576.320312 382.09375 C 569.589844 410.691406 589.730469 423.738281 602.222656 440.40625 C 607.679688 459.621094 590.191406 461.457031 580.351562 468.746094 C 567.757812 478.125 550.421875 482.917969 546.546875 505.394531 C 564.902344 508.554688 581.980469 511.460938 599.011719 514.417969 C 639.648438 516.355469 679.472656 507.742188 719.140625 501.265625 C 723.933594 516.152344 727.605469 527.671875 731.324219 539.242188 C 733.621094 555.246094 768.957031 576.195312 780.632812 584.097656 C 797.867188 595.769531 787.71875 576.808594 791.136719 552.238281 C 791.746094 547.90625 801.433594 519.464844 809.644531 508.605469 C 863.894531 522.164062 918.65625 528.792969 974.488281 521.351562 C 994.730469 509.832031 996.464844 501.878906 977.292969 486.789062 C 957.609375 471.347656 939.816406 455.085938 928.957031 432.453125 C 929.515625 432.25 934.308594 428.683594 934.308594 428.683594 C 948.789062 419.660156 945.984375 404.0625 948.789062 390.605469 C 918.199219 382.859375 895.203125 392.1875 862.058594 402.992188 C 798.273438 422.921875 820.046875 286.523438 823.460938 263.738281 Z M 773.339844 213.734375 " fill-opacity="1" fill-rule="nonzero"/></g><g clip-path="url(#881f3c108e)"><path fill="#90b561" d="M 742.136719 416.910156 C 737.242188 427.152344 710.164062 394.125 705.476562 387.242188 C 733.824219 338.257812 734.894531 301.152344 748.101562 276.328125 C 756.054688 261.34375 756.054688 237.179688 773.339844 213.734375 C 776.347656 224.386719 781.601562 253.644531 776.960938 262.921875 C 760.390625 296.003906 729.644531 389.433594 742.136719 416.910156 Z M 742.136719 416.910156 " fill-opacity="1" fill-rule="nonzero"/></g><path fill="#e92d1a" d="M 224.046875 965.058594 C 174.945312 828.40625 179.277344 694.808594 259.429688 571.507812 C 331.273438 461.101562 437.429688 417.214844 568.417969 435.257812 C 579.738281 436.839844 591.007812 438.621094 602.273438 440.355469 C 618.03125 454.679688 601.304688 460.847656 594.421875 468.238281 C 584.988281 478.328125 570.253906 482.660156 561.535156 495.40625 C 574.996094 504.375 590.140625 503.613281 602.835938 509.675781 C 609.464844 512.683594 615.890625 515.894531 619.867188 524.96875 C 508.558594 595.410156 448.648438 695.367188 438.910156 827.28125 C 429.425781 955.476562 475.058594 1065.066406 550.878906 1163.75 C 526.355469 1184.648438 507.082031 1178.886719 488.417969 1173.179688 C 405.5625 1147.84375 336.523438 1101.714844 281.253906 1034.789062 C 262.183594 1011.546875 245.511719 986.316406 224.046875 965.058594 Z M 975.457031 542.195312 C 987.488281 548.925781 997.890625 557.691406 1006.050781 568.398438 C 1095.941406 687.3125 1122.25 821.777344 1101.550781 967.046875 C 1096.296875 1004.003906 1088.191406 1040.5 1080.390625 1082.753906 C 1087.683594 1076.484375 1090.589844 1075.007812 1091.964844 1072.660156 C 1140.046875 991.003906 1160.59375 900.9375 1160.644531 808.066406 C 1160.695312 731.355469 1143.566406 655.964844 1105.070312 587.460938 C 1067.03125 519.820312 1016.042969 465.6875 943.335938 434.542969 C 941.550781 432.964844 932.21875 432.402344 929.058594 432.402344 C 921.816406 449.171875 928.957031 460.183594 943.234375 471.140625 C 958.324219 482.714844 976.832031 490.664062 987.082031 505.804688 C 985.757812 515.589844 979.484375 517.78125 974.589844 521.296875 C 964.085938 528.691406 964.800781 536.183594 975.457031 542.195312 Z M 711.289062 519.054688 C 684.570312 520.074219 658.414062 518.902344 638.324219 536.285156 C 588.40625 579.558594 545.933594 629.816406 519.367188 690.320312 C 477.40625 785.996094 474.398438 884.933594 504.835938 985.042969 C 505.246094 986.367188 505.652344 987.640625 506.0625 988.964844 C 531.503906 1070.214844 580.808594 1147.691406 663.257812 1179.601562 C 758.296875 1216.351562 872.765625 1188.621094 943.4375 1116.804688 C 1025.273438 1033.667969 1054.949219 933.660156 1038.171875 818.109375 C 1023.640625 717.898438 985.605469 629.5625 917.585938 554.125 C 895.8125 529.964844 865.984375 529.914062 837.839844 524.96875 C 817.851562 521.453125 815.40625 543.828125 802.710938 551.523438 C 799.191406 553.664062 794.652344 550.046875 791.136719 552.1875 C 785.476562 565.746094 786.496094 567.378906 785.882812 576.652344 C 774.71875 566.359375 742.339844 559.273438 731.324219 539.191406 C 719.75 536.84375 719.496094 522.421875 711.289062 519.054688 Z M 711.289062 519.054688 " fill-opacity="1" fill-rule="nonzero"/><path fill="#f9a879" d="M 356.460938 971.992188 C 335.554688 972.042969 327.652344 958.789062 319.902344 947.21875 C 250.558594 843.238281 273.148438 648.730469 364.621094 564.828125 C 384.503906 546.582031 405.921875 528.691406 436.410156 536.945312 C 440.796875 538.121094 446.457031 541.074219 452.929688 550.710938 C 352.179688 674.722656 319.800781 815.761719 356.460938 971.992188 Z M 664.785156 980.914062 C 660.808594 943.804688 659.125 906.59375 659.839844 869.234375 C 661.117188 803.429688 671.464844 739.203125 690.6875 676.304688 C 694.207031 664.886719 695.023438 653.367188 684.417969 644.90625 C 672.128906 635.117188 660.503906 641.542969 650 648.371094 C 635.621094 657.75 627.003906 671.769531 620.9375 687.773438 C 593.710938 759.796875 593.863281 834.011719 603.089844 908.839844 C 606.660156 937.738281 614.714844 965.773438 629.042969 991.515625 C 636.234375 1004.410156 648.113281 1020.464844 664.074219 1012.921875 C 672.382812 1007.011719 665.855469 991.105469 664.785156 980.914062 Z M 664.785156 980.914062 " fill-opacity="1" fill-rule="nonzero"/></svg>